<?xml version="1.0" encoding="UTF-8"?>
<svg xmlns="http://www.w3.org/2000/svg" viewBox="0 0 500 500">
  <defs>
    <style>
      .cls-1, .cls-2, .cls-3 {
        stroke-width: 0px;
      }

      .cls-2 {
        fill: #fff;
      }

      .cls-3 {
        fill: #ebebeb;
      }
    </style>
  </defs>
  <g id="BACKGROUND">
    <rect class="cls-2" width="500" height="500"/>
  </g>
  <g id="OBJECTS">
    <path class="cls-3" d="m500,291.93h-163.48c6.16-8.35,16.8-11.43,24.97-7.86.84.37,1.71.8,2.57.59.82-.2,1.51-.95,2.18-1.63,6.56-6.62,15.4-8.5,23.05-4.9.93.44,1.88.96,2.85.83,1.05-.13,1.97-.98,2.85-1.77,9.72-8.67,21.26-13.2,32.76-12.86,2.44.07,4.94.34,7.25-.72,2.86-1.31,5.06-4.46,7.44-7.04,11.34-12.31,27.47-11.93,41.02-5.47,1.95.93,3.93,1.99,5.99,1.97,1.16-.01,2.3-.37,3.45-.55,2.39-.39,4.8,0,7.08.99v38.42Z"/>
    <path class="cls-3" d="m431.75,385.92c-9.47.86-18.95,1.89-28.46,1.94-18.42.09-36.8-3.57-53.82-10.22-5.85-2.29-11.68-4.96-17.98-5.62-5.93-.62-11.94.58-17.87.02-4.96-.47-9.76-2.16-14.74-2.25-7.73-.14-15.19,3.6-22.89,2.96-6.53-.54-12.28-4.14-18.53-6.03-10.37-3.14-22.26-1.06-30.99,5.01-5.56,3.86-7.27,5.46-14.24,7.01-6.26,1.4-12.44,3.12-18.58,4.94-25.17,7.46-50.25,17.42-77.03,17.71-21.75.23-42.9-6-64.23-10.03-14.87-2.81-31.28-4.87-46.51-2.19-1.98.35-3.94.78-5.87,1.3v109.54h500v-117c-22.26-1.84-46.1.92-68.25,2.92Z"/>
    <path class="cls-1" d="m396,129.21l-5.51,4.42s3.31,3.85-.83,7.71c-4.13,3.86-36.65,21.23-36.65,21.23l-14.89,11.03-18.47,50.99-3.31,3.31s1.37,23.99,0,28.67l38.58,17.92s4.07,1.44,8.2,11.92l9.17,14.45.58,2.18c.61,4.65-3.21,3.2-3.21,3.2l1.09,5.79c-1.61,3.72-4.92.31-4.92.31l-.1,4.13c-1.81,3.87-4.55.36-4.55.36,0,0-2.84-10.21-4.22-14.92-.27-.91-1.03-1.55-1.95-1.79-.03,0-.05-.02-.06-.02-.08.42-.17.84-.25,1.26-.07.34-.13.7-.33.99-.19.29-.53.51-.88.45-.41-.07-.66-.48-.84-.86-.61-1.29-1.01-2.68-1.19-4.1-.09-.76-.46-2.46-.28-3.75-.45-.73-.9-1.45-1.36-2.17,0,0-44.05-15.03-44.05-15.03,0,0-23.5-7.56-23.5-7.65.28,0,10.82,22.88,10.82,22.88,0,0,1.86,3.17-1.72,12.13l-1.17,5.03-.18.84c.93.71.52,3.43.29,4.25-.34,1.21-.93,2.13-1.77,3.04l-1.66,8.09c-.2.98-.72,1.88-1.53,2.45-.83.57-3.78.94-2.92-2.39l-2.62,5.05c-1.01,1.31-2.8,1.87-4.31,1.2-.89-.41-2.12-1.56-.49-4.22l-2.91,3.18c-1.05.92-2.75.81-3.51-.37-.46-.71-.52-1.74.58-3.2,2.76-3.64,6.34-17.08,6.34-17.08l1.52-7.37-17.08-30.6s-9.99,13.02-17.44,16.95c0,0,12.34,27.29,12.06,38.04,0,0-21.77,42.45-33.07,46.72l-3.31,3.17-.55,6.06s27.98.31,28.28.31,13.96-1.23,13.96-1.23c0,0,1.76,0,2.28,1.75.73.06,1.48.1,2.22.15.98.07,2.02.08,2.31,1.26.16.64-.03,1.32-.37,1.88,1,.26,1.54,1.43,1.55,2.36,0,.38-.05.75-.22,1.08-.46.88-1.74.98-2.61,1.01l-16.64-2.06-9.82-.62c1.05,1.23,2.3,2.44,3.04,3.89.21.4.33.88.17,1.29-.12.34-.4.59-.7.79-.35.24-.73.42-1.15.45-.65.05-1.28-.32-1.74-.79-.46-.47-.79-1.05-1.19-1.57-.46-.61-1.01-1.02-1.67-1.38-2.02-1.1-4.19-2-6.28-2.99l-20.67-1.35-4.55,4.86-2.48-.1-.83,7.96,27.4,1.04,13.95-1.44s2.8-.62,2.69,1.54l3.2.41s2.2.58,1.21,2.89c0,0,5,4.24-.89,4.65l-16.23-2.55c-1.44-.23-2.91-.31-4.37-.25l-6.07.23,2.19,2.52c.98,1.12.89,2.9-.3,3.79-.67.5-1.57.62-2.72-.31,0,0-4.03-5.69-8.16-6.41-4.13-.73-26.14-1.14-26.14-1.14,0,0-6.31-3.62-3.73-6.71,2.59-3.1,6.1-9.82,6.1-9.82l3.93-24.29s-10.85,0-20.05-12.71c-9.2-12.71-28.63-35.04-28.63-35.04,0,0-1.3-1.3-3.19-3.48-2.6,4.34-4.88,8.94-6.79,13.71-2.74,6.77-4.56,13.91-5.58,21.1-.32,1.8-.39,3.6-.58,5.41-.07.47-.08.88-.08,1.28l-.03,1.22-.08,2.47.14,2.47c.05.82.03,1.66.18,2.47.26,1.63.35,3.32.78,4.93l.52,2.46c.22.8.49,1.6.72,2.41.41,1.64,1.09,3.18,1.69,4.77.16.4.27.8.47,1.19l.56,1.14,1.1,2.32c.4.76.86,1.48,1.28,2.23l.64,1.12.32.57.37.53c3.78,5.77,8.65,10.95,14.36,15.15,5.79,4.28,11.98,7.01,20.15,9.75,7.8,2.63,15.92,4.73,24.18,6.36,16.55,3.24,33.69,4.61,50.79,4.13,17.08-.5,34.22-2.84,50.52-7.93,8.14-2.52,16-5.86,23.33-10.11,1.86-1.02,3.6-2.21,5.37-3.37.91-.56,1.71-1.22,2.57-1.85.84-.64,1.71-1.23,2.52-1.91,3.28-2.67,6.23-5.62,9.31-8.85,6.05-6.35,11.97-13.33,19.26-18.96,3.64-2.79,7.67-5.21,12.06-6.67,4.39-1.48,9.1-1.86,13.56-1.14.25.04.43.28.4.54-.04.24-.25.4-.49.4-4.38-.21-8.72.64-12.6,2.44-3.89,1.77-7.34,4.39-10.44,7.36-6.23,5.99-11.16,13.24-16.62,20.4-2.7,3.51-5.66,7.21-8.95,10.54-.81.85-1.7,1.61-2.54,2.42-.87.78-1.69,1.63-2.61,2.34-1.81,1.48-3.59,3-5.5,4.34-7.52,5.53-15.7,10.1-24.2,13.79-17.02,7.41-35.1,11.91-53.4,14.46-18.32,2.51-36.93,3.06-55.6,1.49-9.33-.8-18.69-2.15-28.04-4.2l-3.5-.78-3.5-.9c-2.25-.52-4.86-1.41-7.36-2.22-.63-.22-1.27-.4-1.89-.64l-1.84-.76-3.69-1.54c-1.22-.52-2.39-1.17-3.6-1.76-1.18-.62-2.4-1.19-3.55-1.87-9.3-5.32-17.69-12.37-24.65-20.76l-.66-.77-.62-.82-1.22-1.64c-.8-1.1-1.64-2.18-2.41-3.32l-2.2-3.48-1.08-1.75c-.37-.58-.66-1.21-.99-1.81-1.29-2.43-2.62-4.86-3.64-7.43-.54-1.27-1.1-2.54-1.61-3.83l-1.35-3.94c-.97-2.62-1.54-5.35-2.25-8.05-.37-1.36-.56-2.74-.81-4.12l-.68-4.15c-.16-1.39-.26-2.79-.39-4.19l-.18-2.1c-.06-.71-.11-1.4-.11-2.04-.04-2.64-.18-5.29-.05-7.91.3-10.52,1.78-20.97,4.59-31.1,2.79-10.12,6.7-19.98,11.82-29.38,5.18-9.36,11.56-18.27,19.31-26.36l.28-.29c2.06-2.16,4.45-3.83,7-5.04,10.1-27.57,33.28-67,85.44-84.38,0,0,40.66-2.76,56.92-16.68l13.78-17.08-18.88-2.64c-3.3-.46-6.06-2.75-7.09-5.92-2.2-6.77-3.47-18.63,10.03-26.55-5.02,17.87.58,20.57.58,20.57l9.78,2.96-9.17-3.37c-5.44-4.69-.4-20.61-.4-20.61,0,0,11-25.34,37.45-18.8,1.89.47,3.51,1.7,4.46,3.39l13.2,23.68,28.94-9.64s12.13-.27,17.09,1.38c4.96,1.66,24.81-1.38,24.81-1.38,0,0,5.79-4.13,7.72-.83,1.93,3.31,1.65,6.34,1.65,6.34,0,0,6.07,16.26-13.23,25.91Z"/>
    <path class="cls-1" d="m390.18,428.17c.24-1.11.51-2.22.85-3.31.95-3.03,2.27-5.94,3.94-8.6,1.67-2.67,3.67-5.09,5.13-7.82-3.99,3.2-7.85,6.78-10.86,11.13-.9,1.3-1.72,2.67-2.44,4.1-1.06-7.36-.79-14.89.87-22.03,1.21-5.27,3.16-10.31,4.07-15.51-4.81,7.33-9.12,15.33-11.5,24.17-1.75,6.48-2.43,13.43-1.46,20.25.07.51.13,1.03.2,1.54-.81-1.4-1.59-2.81-2.24-4.28-1.24-2.83-1.94-5.86-2.02-8.85-.09-3,.42-5.89.48-8.69-2.05,4.28-3.43,9.3-3.11,14.6.11,1.93.47,3.93,1.06,5.82.33,1.09.71,2.11,1.11,3.08h15.3c1.03-2.67,2.51-5.16,4.39-7.34,1.1-1.28,2.33-2.46,3.28-3.87-2.31,1.57-4.59,3.17-6.54,5.09-.17.17-.34.35-.51.53Z"/>
    <path class="cls-1" d="m441.54,395.18c-1.6.58-3.2,1.3-4.74,2.21,1.35-2.58,2.84-5.11,4.49-7.56,1.88-2.79,3.95-5.53,5.29-8.7-3.94,3.97-7.96,7.7-11.48,11.71-.63.72-1.25,1.46-1.85,2.21-.27-5.14.02-10.31.93-15.37.8-4.44,2.05-8.81,2.3-13.32-3.23,6.66-6.32,13.44-8.21,20.6-1.39,5.25-2.12,10.73-1.74,16.16.07.99.06,2.02.26,2.92h7.94c1.42-2.22,3.25-4.18,5.32-5.78,2.36-1.85,4.98-3.31,7.73-4.61,2.75-1.29,5.7-2.48,8.28-4.66-5.07,1.81-9.87,2.5-14.53,4.21Z"/>
    <path class="cls-1" d="m66.97,450.29c1.03-1.53,2.14-3,3.33-4.43,2.37-2.85,5.05-5.52,7.09-8.7-5.06,3.61-10,7.18-14.2,11.39-1.93,1.87-3.7,3.75-5.34,5.52.77-6.23,2.47-12.33,5.07-17.99,2.02-4.41,4.57-8.57,6.18-13.09-5.06,5.51-9.91,11.4-13.63,18.06-.21-1.83-.42-3.66-.61-5.5-.96-9.81-1.58-19.72-1.43-29.67.15-9.93.99-19.93-.28-29.67-4.21,15.56-7.96,31.54-10.17,47.16-.83,5.74-1.41,11.45-1.76,17.06-.36,5.61-.45,11.11-.2,16.51.04,1.64.01,3.34.15,4.89.01.15.03.29.05.44-4.63-7.94-7.25-17.07-7.4-26.08-.1-5.21.6-10.35.34-15.38-2.96,7.87-5.18,16.39-5.22,25.3-.03,6.29,1.08,12.78,3.65,18.75h28.82c2.33-4.76,5.22-9.25,8.65-13.39,2.06-2.48,4.32-4.87,5.94-7.73-3.52,2.79-7.04,5.47-10.29,8.36.41-.61.82-1.21,1.24-1.81Z"/>
    <path class="cls-1" d="m310.05,370.59c.97-2.34,2.47-4.44,4.35-5.97,1.58-1.31,3.38-2.21,4.92-3.3-3.18.57-6.51,1.92-9.23,4.4,0,0,0,0-.01.01.12-.5.24-.99.4-1.47.38-1.15.87-2.26,1.11-3.45-1.11,1.65-2.18,3.33-2.95,5.16-.3.71-.55,1.45-.74,2.2-.56.77-1.05,1.6-1.46,2.48-1.14-3.01-1.66-6.25-1.46-9.4.13-2.18.59-4.3.63-6.41-1.48,3.2-2.68,6.68-3,10.39-.23,2.72.03,5.56.96,8.22.16.47.32.96.53,1.37h5.84c1.18-2.38,2.75-4.57,4.69-6.4,1.1-1.04,2.31-1.97,3.28-3.14-2.2,1.16-4.39,2.37-6.33,3.93-.54.43-1.05.9-1.54,1.39Z"/>
    <path class="cls-1" d="m69.34,393.56c-.23.26-.43.55-.61.85.02-.79.15-1.59.4-2.34.17-.52.39-1.02.5-1.55-.5.74-.98,1.5-1.33,2.32-.12.29-.22.58-.3.88-.43-1.79-.68-3.62-.72-5.48-.02-1.28.04-2.58-.21-3.86-.41,2.08-.86,4.13-1.05,6.18-.14,1.5-.14,3.01.12,4.47.02.09.03.17.04.26h3.41c.29-.89.75-1.71,1.35-2.38.53-.6,1.16-1.08,1.68-1.63-1.18.49-2.36,1.21-3.27,2.28Z"/>
    <path class="cls-1" d="m434.5,462.61c-.55-1.77-.74-3.64-.56-5.49.09-.92.28-1.83.26-2.76-.56,1.41-1.08,2.85-1.36,4.34-.2,1.1-.27,2.23-.1,3.33.05.33.05.7.28.9l1.47-.32Z"/>
    <path class="cls-1" d="m435.94,464.78c-.5-2.18-.05-4.57,1.16-6.33.6-.89,1.37-1.6,1.99-2.36-1.51.74-2.99,1.91-3.99,3.54-.74,1.19-1.2,2.66-1.19,4.16,0,.45-.03.96.23,1.24l1.8-.25Z"/>
    <path class="cls-1" d="m439.04,460.57c.51-.91,1.2-1.71,2.03-2.35.41-.32.86-.59,1.23-.96-.79.32-1.58.66-2.3,1.12-.53.34-1.01.75-1.4,1.25-.12.15-.27.29-.26.46l.7.48Z"/>
    <path class="cls-1" d="m319.35,466.33c-.58-1.76-.81-3.63-.65-5.47.08-.92.25-1.84.21-2.76-.53,1.42-1.03,2.86-1.28,4.36-.18,1.1-.22,2.23-.04,3.33.06.33.07.7.3.89l1.46-.35Z"/>
    <path class="cls-1" d="m324.45,466.91c-.14-1.12.16-2.29.82-3.16.32-.44.72-.79,1.05-1.18-.77.37-1.53.93-2.09,1.72-.4.58-.69,1.28-.75,2.03-.02.22-.06.47.06.62l.92-.04Z"/>
    <path class="cls-1" d="m179.2,471.67c-.26-1.31-.25-2.67.03-3.98.14-.65.34-1.29.4-1.96-.51.97-1,1.96-1.31,3.01-.23.77-.36,1.58-.33,2.38,0,.24-.02.51.13.67l1.08-.12Z"/>
    <path class="cls-1" d="m103.88,464.25c-.34-2.43-.36-4.9-.05-7.37.16-1.23.39-2.48.31-3.75-.66,1.96-1.37,3.86-1.86,5.78-.36,1.41-.6,2.84-.59,4.26,0,.43-.07.9.19,1.19l1.99-.11Z"/>
    <path class="cls-1" d="m279.06,458.49c.18-1.34.47-2.65.87-3.98.2-.66.43-1.33.48-2.05-.49,1.05-1.05,2.02-1.51,2.99-.34.71-.64,1.43-.84,2.16-.06.22-.16.45-.07.64l1.07.24Z"/>
    <path class="cls-1" d="m338.26,438.27c.03-1.25.03-2.48-.03-3.79-.03-.65-.08-1.34-.35-1.99.04,1.12-.13,2.16-.3,3.11-.13.7-.27,1.36-.34,2.01-.02.2-.09.4.02.55l1.01.12Z"/>
    <path class="cls-1" d="m465.01,415.99c-.03-.36.01-.73.12-1.07.06-.17.13-.34.17-.52-.17.25-.33.5-.44.77-.08.2-.14.42-.16.63,0,.07-.02.14.02.18h.3Z"/>
    <path class="cls-3" d="m0,143.98h163.48c-6.16-8.35-16.8-11.43-24.97-7.86-.84.37-1.71.8-2.57.59-.82-.2-1.51-.95-2.18-1.63-6.56-6.62-15.4-8.5-23.05-4.9-.93.44-1.88.96-2.85.83-1.05-.13-1.97-.98-2.85-1.77-9.72-8.67-21.26-13.2-32.76-12.86-2.44.07-4.94.34-7.25-.72-2.86-1.31-5.06-4.46-7.44-7.04-11.34-12.31-27.47-11.93-41.02-5.47-1.95.93-3.93,1.99-5.99,1.97-1.16-.01-2.3-.37-3.45-.55-2.39-.39-4.8,0-7.08.99v38.42Z"/>
  </g>
</svg>